<svg width="30" height="30" viewBox="0 0 110 96" fill="none" xmlns="http://www.w3.org/2000/svg">
<path d="M32.0833 88C29.5624 88 27.4037 87.216 25.607 85.648C23.8103 84.08 22.9135 82.1973 22.9166 80C22.9166 77.8 23.8149 75.916 25.6116 74.348C27.4082 72.78 29.5655 71.9973 32.0833 72C34.6041 72 36.7628 72.784 38.5595 74.352C40.3562 75.92 41.253 77.8027 41.2499 80C41.2499 82.2 40.3516 84.084 38.5549 85.652C36.7582 87.22 34.601 88.0027 32.0833 88ZM77.9166 88C75.3957 88 73.237 87.216 71.4403 85.648C69.6437 84.08 68.7469 82.1973 68.7499 80C68.7499 77.8 69.6482 75.916 71.4449 74.348C73.2416 72.78 75.3988 71.9973 77.9166 72C80.4374 72 82.5962 72.784 84.3928 74.352C86.1895 75.92 87.0863 77.8027 87.0832 80C87.0832 82.2 86.1849 84.084 84.3883 85.652C82.5916 87.22 80.4344 88.0027 77.9166 88ZM32.0833 68C28.6458 68 26.0485 66.6827 24.2916 64.048C22.5346 61.4133 22.4583 58.7973 24.0624 56.2L30.2499 46.4L13.7499 16H9.052C7.75339 16 6.68395 15.616 5.84367 14.848C5.00339 14.08 4.58325 13.1307 4.58325 12C4.58325 10.8667 5.02325 9.91601 5.90325 9.14801C6.78325 8.38001 7.87103 7.99735 9.16658 8.00001H16.6145C17.4548 8.00001 18.2569 8.20001 19.0208 8.60001C19.7846 9.00001 20.3576 9.56668 20.7395 10.3L23.8333 16H91.4374C93.4999 16 94.9131 16.6667 95.677 18C96.4409 19.3333 96.4027 20.7333 95.5624 22.2L79.2916 47.8C78.4513 49.1333 77.3437 50.1667 75.9687 50.9C74.5937 51.6333 73.0277 52 71.2708 52H37.1249L32.0833 60H82.6145C83.9131 60 84.9826 60.384 85.8228 61.152C86.6631 61.92 87.0832 62.8693 87.0832 64C87.0832 65.1333 86.6432 66.084 85.7632 66.852C84.8832 67.62 83.7955 68.0027 82.4999 68H32.0833Z" fill="#F5F5F5"/>
</svg>
